<?xml version="1.0" encoding="UTF-8"?> <svg xmlns="http://www.w3.org/2000/svg" xmlns:xlink="http://www.w3.org/1999/xlink" viewBox="0 0 217.84 150.51"> <defs> <style>.cls-1{fill:#8fc5eb;}.cls-2{isolation:isolate;}.cls-24,.cls-3{fill:#004e89;}.cls-20,.cls-3,.cls-48,.cls-6{opacity:0.3;}.cls-22,.cls-23,.cls-27,.cls-3,.cls-35,.cls-36,.cls-40{mix-blend-mode:multiply;}.cls-4{fill:#424242;}.cls-5{fill:#282828;}.cls-22,.cls-6,.cls-7{fill:#b3c9ce;}.cls-8{fill:#cff4ff;}.cls-9{fill:#c9dee2;}.cls-10{fill:#525252;}.cls-11,.cls-14{fill:#e8e8e8;}.cls-11,.cls-17,.cls-19,.cls-21,.cls-22,.cls-32,.cls-40{opacity:0.5;}.cls-12,.cls-27{fill:#a81502;}.cls-13{fill:#878889;}.cls-15,.cls-17{fill:#fdfeff;}.cls-16{fill:#66b2e8;}.cls-18,.cls-21{fill:#e5f0f9;}.cls-19,.cls-20,.cls-28,.cls-36{fill:#fff;}.cls-25{fill:#005da3;}.cls-26,.cls-32{fill:#e4e9ef;}.cls-29,.cls-48{fill:#b9bdc2;}.cls-30{fill:#e4eff9;}.cls-31{fill:#b5d2e5;}.cls-33{fill:#f7c9b2;}.cls-34,.cls-35{fill:#efefef;}.cls-36{opacity:0.4;}.cls-37{fill:#f5b39a;}.cls-38{fill:#710a02;}.cls-39,.cls-40{fill:#aae8fa;}.cls-41{fill:#582d11;}.cls-42{fill:#232426;}.cls-43{fill:url(#linear-gradient);}.cls-44{clip-path:url(#clip-path);}.cls-45{fill:#bdecf4;}.cls-46{fill:#17050a;}.cls-47{fill:url(#linear-gradient-2);}</style> <linearGradient id="linear-gradient" x1="285.8" y1="105.63" x2="287.51" y2="115.89" gradientTransform="matrix(-1, 0, 0, 1, 467.06, 0)" gradientUnits="userSpaceOnUse"> <stop offset="0" stop-color="#66b2e8"></stop> <stop offset="1" stop-color="#8fc5eb"></stop> </linearGradient> <clipPath id="clip-path"> <path class="cls-1" d="M174.81,56.1s-6-3.33-18.68-3.86c0,0-.18-4.43,3.61-9.46A29,29,0,0,1,174.38,46,22.84,22.84,0,0,1,174.81,56.1Z"></path> </clipPath> <linearGradient id="linear-gradient-2" x1="297.15" y1="80.83" x2="328.69" y2="98.27" gradientTransform="matrix(-1, 0, 0, 1, 467.06, 0)" gradientUnits="userSpaceOnUse"> <stop offset="0" stop-color="#8fc5eb"></stop> <stop offset="1" stop-color="#66b2e8"></stop> </linearGradient> </defs> <title>emergency-departments</title> <g class="cls-2"> <g id="Layer_2" data-name="Layer 2"> <g id="Layer_1-2" data-name="Layer 1"> <path class="cls-3" d="M86.62,116c0,4.41-19.39,8-43.31,8S0,120.36,0,116s19.39-8,43.31-8S86.62,111.55,86.62,116Z"></path> <path class="cls-4" d="M12.51,114.3a4.94,4.94,0,1,0,4.93-4.94A4.94,4.94,0,0,0,12.51,114.3Z"></path> <path class="cls-5" d="M17.44,109.36l.1,0a4.73,4.73,0,1,0,4.83,4.82s0,.07,0,.1a4.94,4.94,0,1,1-4.94-4.94Z"></path> <path class="cls-6" d="M21.16,114.51a3.87,3.87,0,0,0-7.74-.19c0-.06,0-.13,0-.19a4.27,4.27,0,1,1,4.27,4.26l-.19,0A3.86,3.86,0,0,0,21.16,114.51Z"></path> <path class="cls-5" d="M15.16,114.48a2.11,2.11,0,1,0,2.1-2.1A2.1,2.1,0,0,0,15.16,114.48Z"></path> <path class="cls-7" d="M15.52,114.3a1.93,1.93,0,1,0,1.92-1.92A1.93,1.93,0,0,0,15.52,114.3Z"></path> <circle class="cls-4" cx="17.44" cy="114.3" r="0.4"></circle> <path class="cls-8" d="M18.32,109l2.47,1.37c.41.27.55.61.25.91l-3.21,2.63a.55.55,0,0,1-.77,0l-3.22-2.63c-.3-.3-.16-.66.25-.91L16.57,109A2.06,2.06,0,0,1,18.32,109Z"></path> <path class="cls-4" d="M61.35,114.3a4.94,4.94,0,1,0,4.94-4.94A4.94,4.94,0,0,0,61.35,114.3Z"></path> <path class="cls-5" d="M66.29,109.36l.09,0a4.73,4.73,0,1,0,4.83,4.82s0,.07,0,.1a4.94,4.94,0,1,1-4.93-4.94Z"></path> <path class="cls-6" d="M70,114.51a3.87,3.87,0,0,0-7.73-.19,1.23,1.23,0,0,1,0-.19,4.27,4.27,0,1,1,4.26,4.26l-.19,0A3.86,3.86,0,0,0,70,114.51Z"></path> <path class="cls-5" d="M64,114.48a2.11,2.11,0,1,0,2.1-2.1A2.1,2.1,0,0,0,64,114.48Z"></path> <path class="cls-7" d="M64.36,114.3a1.93,1.93,0,1,0,1.93-1.92A1.93,1.93,0,0,0,64.36,114.3Z"></path> <path class="cls-4" d="M65.88,114.3a.41.41,0,1,0,.41-.4A.4.4,0,0,0,65.88,114.3Z"></path> <path class="cls-8" d="M67.16,109l2.47,1.37c.42.27.56.61.26.91l-3.22,2.63a.55.55,0,0,1-.77,0l-3.22-2.63c-.29-.3-.15-.66.26-.91L65.41,109A2.06,2.06,0,0,1,67.16,109Z"></path> <path class="cls-7" d="M66.29,110.4a1,1,0,0,1-1-1V60.14c0-.57.57-.5,1.14-.5s.93-.07.93.5v49.22A1,1,0,0,1,66.29,110.4Z"></path> <path class="cls-7" d="M17.26,110.4a1,1,0,0,1-1-1V60.14c0-.57.57-.5,1.14-.5s.93-.07.93.5v49.22A1,1,0,0,1,17.26,110.4Z"></path> <rect class="cls-7" x="17.04" y="64.05" width="48.84" height="1.19"></rect> <rect class="cls-9" x="17.67" y="78.13" width="48.62" height="9.19"></rect> <path class="cls-7" d="M66.88,87.92H17.07V77.54H66.88ZM18.27,86.73H65.69v-8H18.27Z"></path> <rect class="cls-9" x="17.67" y="87.32" width="48.62" height="16.41"></rect> <path class="cls-7" d="M66.88,104.33H17.07V86.73H66.88Zm-48.61-1.19H65.69V87.92H18.27Z"></path> <rect class="cls-10" x="36.68" y="90.04" width="10.6" height="1.19"></rect> <rect class="cls-10" x="36.68" y="79.94" width="10.6" height="1.19"></rect> <rect class="cls-11" x="25.26" y="52.1" width="1.82" height="11.49"></rect> <rect class="cls-12" x="25.5" y="56.66" width="1.34" height="7.12"></rect> <rect class="cls-13" x="25.26" y="52.1" width="1.82" height="0.55"></rect> <rect class="cls-11" x="28.13" y="52.1" width="1.81" height="11.49"></rect> <rect class="cls-12" x="28.36" y="54.59" width="1.34" height="9.18"></rect> <rect class="cls-13" x="28.13" y="52.1" width="1.81" height="0.55"></rect> <rect class="cls-11" x="30.99" y="52.1" width="1.81" height="11.49"></rect> <rect class="cls-12" x="31.23" y="57.84" width="1.34" height="5.93"></rect> <rect class="cls-13" x="30.99" y="52.1" width="1.81" height="0.55"></rect> <rect class="cls-11" x="33.85" y="52.1" width="1.82" height="11.49"></rect> <rect class="cls-12" x="34.09" y="56.33" width="1.34" height="7.44"></rect> <rect class="cls-13" x="33.85" y="52.1" width="1.82" height="0.55"></rect> <rect class="cls-14" x="22.74" y="53.83" width="15.75" height="1.18"></rect> <rect class="cls-14" x="19.18" y="58.46" width="9" height="1.18" transform="translate(-35.38 82.73) rotate(-90)"></rect> <rect class="cls-14" x="33" y="58.32" width="9" height="1.18" transform="translate(-21.41 96.42) rotate(-90)"></rect> <rect class="cls-15" x="22.74" y="62.96" width="15.75" height="1.18"></rect> <rect class="cls-14" x="22.74" y="62.96" width="15.75" height="1.18"></rect> <rect class="cls-16" x="42.63" y="58.14" width="3.55" height="5.9"></rect> <rect class="cls-17" x="42.09" y="57" width="4.64" height="1.15"></rect> <rect class="cls-18" x="42.09" y="58.44" width="4.64" height="0.25"></rect> <rect class="cls-1" x="43.49" y="59.58" width="1.83" height="3.04"></rect> <rect class="cls-16" x="57.49" y="59.36" width="2.53" height="4.75"></rect> <rect class="cls-17" x="57.11" y="58.44" width="3.29" height="0.92"></rect> <rect class="cls-18" x="57.11" y="59.6" width="3.29" height="0.2"></rect> <rect class="cls-1" x="58.1" y="60.51" width="1.3" height="2.44"></rect> <rect class="cls-16" x="56.79" y="69.22" width="3.55" height="8.39"></rect> <rect class="cls-17" x="56.48" y="67.99" width="4.17" height="1.23"></rect> <rect class="cls-15" x="56.48" y="69.63" width="4.17" height="0.36"></rect> <path class="cls-16" d="M59.48,75.39a.17.17,0,0,1-.16.18H57.81a.17.17,0,0,1-.16-.18v-4a.17.17,0,0,1,.16-.18h1.51a.17.17,0,0,1,.16.18Z"></path> <rect class="cls-16" x="51.31" y="55.66" width="3.55" height="8.39"></rect> <rect class="cls-17" x="51" y="54.43" width="4.17" height="1.23"></rect> <rect class="cls-18" x="51" y="56.08" width="4.17" height="0.36"></rect> <path class="cls-16" d="M54,61.84a.17.17,0,0,1-.16.17H52.33a.17.17,0,0,1-.16-.17v-4a.17.17,0,0,1,.16-.17h1.51a.17.17,0,0,1,.16.17Z"></path> <rect class="cls-16" x="61.36" y="72" width="2.35" height="5.54"></rect> <rect class="cls-17" x="61.16" y="71.19" width="2.76" height="0.81"></rect> <rect class="cls-15" x="61.16" y="72.27" width="2.76" height="0.23"></rect> <path class="cls-16" d="M63.14,76.08a.11.11,0,0,1-.11.11H62a.11.11,0,0,1-.11-.11V73.46a.12.12,0,0,1,.11-.12h1a.12.12,0,0,1,.11.12Z"></path> <rect class="cls-16" x="21.5" y="71.64" width="17.21" height="5.9"></rect> <rect class="cls-19" x="21.5" y="71.64" width="17.21" height="5.9"></rect> <rect class="cls-20" x="21.5" y="71.64" width="17.21" height="1.94"></rect> <rect class="cls-16" x="21.5" y="73.58" width="17.21" height="0.28"></rect> <rect class="cls-16" x="42.2" y="71.64" width="11.84" height="5.9"></rect> <rect class="cls-19" x="42.2" y="71.64" width="11.84" height="5.9"></rect> <rect class="cls-20" x="42.2" y="71.64" width="11.84" height="1.94"></rect> <rect class="cls-16" x="42.2" y="73.58" width="11.84" height="0.28"></rect> <rect class="cls-16" x="47.93" y="58.14" width="3.55" height="5.9"></rect> <rect class="cls-15" x="47.39" y="57" width="4.64" height="1.15"></rect> <rect class="cls-21" x="47.39" y="57" width="4.64" height="1.15"></rect> <rect class="cls-18" x="47.39" y="58.44" width="4.64" height="0.25"></rect> <rect class="cls-1" x="48.8" y="59.58" width="1.83" height="3.04"></rect> <ellipse class="cls-3" cx="153.22" cy="122.36" rx="44.22" ry="6.91"></ellipse> <rect class="cls-7" x="122.45" width="61.54" height="123.55"></rect> <rect class="cls-9" x="94.45" y="34.01" width="117.55" height="55.54" transform="translate(215 -91.45) rotate(90)"></rect> <rect class="cls-7" x="122.45" y="0.09" width="60.66" height="3"></rect> <rect class="cls-7" x="122.45" y="20.09" width="60.66" height="3"></rect> <rect class="cls-7" x="122.45" y="40.09" width="60.66" height="3"></rect> <rect class="cls-7" x="122.45" y="60.09" width="60.66" height="3"></rect> <rect class="cls-7" x="122.45" y="80.09" width="60.66" height="41"></rect> <polygon class="cls-22" points="183.99 2.5 180.99 116.73 122.45 118.94 122.45 123.55 183.99 123.55 183.99 2.5"></polygon> <g class="cls-23"> <rect class="cls-7" x="152.29" y="80.35" width="1" height="43.19"></rect> </g> <rect class="cls-24" x="162.13" y="85.1" width="11.25" height="1.31"></rect> <rect class="cls-24" x="132.15" y="85.1" width="11.25" height="1.31" transform="translate(275.55 171.51) rotate(180)"></rect> <rect class="cls-19" x="132.68" y="7.51" width="1.88" height="11.88"></rect> <rect class="cls-12" x="132.92" y="12.22" width="1.39" height="7.35"></rect> <rect class="cls-13" x="132.68" y="7.51" width="1.88" height="0.57"></rect> <rect class="cls-19" x="135.64" y="7.51" width="1.87" height="11.88"></rect> <rect class="cls-12" x="135.88" y="10.09" width="1.39" height="9.49"></rect> <rect class="cls-13" x="135.64" y="7.51" width="1.87" height="0.57"></rect> <rect class="cls-19" x="138.6" y="7.51" width="1.88" height="11.88"></rect> <rect class="cls-12" x="138.84" y="13.45" width="1.39" height="6.13"></rect> <rect class="cls-13" x="138.6" y="7.51" width="1.88" height="0.57"></rect> <rect class="cls-19" x="141.56" y="7.51" width="1.88" height="11.88"></rect> <rect class="cls-12" x="141.8" y="11.88" width="1.39" height="7.69"></rect> <rect class="cls-13" x="141.56" y="7.51" width="1.88" height="0.57"></rect> <rect class="cls-25" x="126.39" y="14.09" width="9.3" height="1.22" transform="translate(116.34 145.74) rotate(-90)"></rect> <rect class="cls-25" x="140.68" y="13.94" width="9.3" height="1.22" transform="translate(130.77 159.88) rotate(-90)"></rect> <rect class="cls-26" x="130.07" y="18.74" width="16.28" height="1.22"></rect> <rect class="cls-24" x="130.07" y="18.74" width="16.28" height="1.22"></rect> <rect class="cls-24" x="130.07" y="9.3" width="16.28" height="1.22"></rect> <rect class="cls-25" x="128.99" y="33.43" width="18.44" height="6.67"></rect> <rect class="cls-20" x="128.99" y="33.43" width="18.44" height="2.19"></rect> <rect class="cls-24" x="128.99" y="35.62" width="18.44" height="0.32"></rect> <rect class="cls-25" x="149.66" y="49.4" width="20.73" height="10.7"></rect> <rect class="cls-20" x="149.66" y="49.4" width="20.73" height="3.52"></rect> <rect class="cls-24" x="149.66" y="52.92" width="20.73" height="0.51"></rect> <rect class="cls-25" x="150.63" y="13.76" width="3.67" height="6.1"></rect> <rect class="cls-16" x="150.07" y="12.57" width="4.79" height="1.19"></rect> <rect class="cls-16" x="150.07" y="14.06" width="4.79" height="0.26"></rect> <rect class="cls-24" x="151.52" y="15.24" width="1.89" height="3.14"></rect> <rect class="cls-25" x="165.98" y="15.01" width="2.61" height="4.91"></rect> <rect class="cls-16" x="165.59" y="14.06" width="3.4" height="0.95"></rect> <rect class="cls-16" x="165.59" y="15.26" width="3.4" height="0.21"></rect> <rect class="cls-24" x="166.62" y="16.21" width="1.34" height="2.53"></rect> <rect class="cls-12" x="159.59" y="11.19" width="3.67" height="8.67"></rect> <rect class="cls-16" x="159.27" y="9.92" width="4.31" height="1.27"></rect> <rect class="cls-16" x="159.27" y="11.62" width="4.31" height="0.37"></rect> <path class="cls-27" d="M162.38,17.57a.19.19,0,0,1-.17.19h-1.56a.18.18,0,0,1-.16-.19V13.48a.17.17,0,0,1,.16-.18h1.56a.18.18,0,0,1,.17.18Z"></path> <rect class="cls-25" x="156.11" y="13.76" width="3.67" height="6.1"></rect> <rect class="cls-16" x="155.55" y="12.57" width="4.79" height="1.19"></rect> <rect class="cls-16" x="155.55" y="12.57" width="4.79" height="1.19"></rect> <rect class="cls-16" x="155.55" y="14.06" width="4.79" height="0.26"></rect> <rect class="cls-24" x="157" y="15.24" width="1.89" height="3.14"></rect> <rect class="cls-16" x="157.03" y="34.06" width="3.67" height="6.1"></rect> <rect class="cls-25" x="156.47" y="32.87" width="4.79" height="1.19"></rect> <rect class="cls-25" x="156.47" y="34.36" width="4.79" height="0.26"></rect> <rect class="cls-28" x="157.92" y="35.54" width="1.89" height="3.14"></rect> <rect class="cls-16" x="172.39" y="35.31" width="2.61" height="4.91"></rect> <rect class="cls-25" x="171.99" y="34.36" width="3.4" height="0.95"></rect> <rect class="cls-25" x="171.99" y="35.56" width="3.4" height="0.21"></rect> <rect class="cls-28" x="173.02" y="36.5" width="1.34" height="2.53"></rect> <rect class="cls-12" x="166" y="31.49" width="3.67" height="8.67"></rect> <rect class="cls-25" x="165.68" y="30.22" width="4.31" height="1.27"></rect> <rect class="cls-25" x="165.68" y="31.92" width="4.31" height="0.37"></rect> <path class="cls-27" d="M168.78,37.87a.17.17,0,0,1-.16.18h-1.56a.17.17,0,0,1-.17-.18V33.78a.18.18,0,0,1,.17-.19h1.56a.18.18,0,0,1,.16.19Z"></path> <rect class="cls-16" x="162.51" y="34.06" width="3.67" height="6.1"></rect> <rect class="cls-25" x="161.95" y="32.87" width="4.79" height="1.19"></rect> <rect class="cls-25" x="161.95" y="32.87" width="4.79" height="1.19"></rect> <rect class="cls-25" x="161.95" y="34.36" width="4.79" height="0.26"></rect> <rect class="cls-28" x="163.4" y="35.54" width="1.89" height="3.14"></rect> <ellipse class="cls-3" cx="116.55" cy="140.41" rx="101.28" ry="10.1"></ellipse> <path class="cls-16" d="M153.22,90c7.92,3.6,10.13,4.64,13.79-1.33s-4.11-12.4-4.11-12.4Z"></path> <rect class="cls-29" x="129.2" y="86.06" width="19.03" height="2.18" transform="translate(-14.23 145.83) rotate(-53.13)"></rect> <rect class="cls-29" x="47.62" y="77.63" width="2.18" height="19.03" transform="translate(-42.57 46.71) rotate(-36.91)"></rect> <rect class="cls-26" x="54.42" y="105.22" width="78.59" height="3.26"></rect> <rect class="cls-26" x="54.42" y="101.42" width="78.59" height="2.18"></rect> <rect class="cls-29" x="52.47" y="78.58" width="3.91" height="57.18"></rect> <rect class="cls-29" x="131.05" y="78.58" width="3.92" height="57.18"></rect> <path class="cls-30" d="M32,75.55a6.88,6.88,0,0,0,6.88,6.88H148.6a6.88,6.88,0,0,0,6.88-6.88h0a6.88,6.88,0,0,0-6.88-6.89H38.83A6.88,6.88,0,0,0,32,75.55Z"></path> <path class="cls-31" d="M38.83,78.08H148.6a6.85,6.85,0,0,0,6.5-4.71,6.82,6.82,0,0,1-6.5,9.06H38.83a6.82,6.82,0,0,1-6.5-9.06A6.87,6.87,0,0,0,38.83,78.08Z"></path> <path class="cls-32" d="M68.76,72.81c0,.66-3.39,1.19-7.58,1.19s-7.57-.53-7.57-1.19,3.39-1.18,7.57-1.18S68.76,72.16,68.76,72.81Z"></path> <path class="cls-32" d="M109.6,74.51c0,1.63-8.44,2.95-18.85,2.95S71.9,76.14,71.9,74.51s8.44-3,18.85-3S109.6,72.88,109.6,74.51Z"></path> <path class="cls-33" d="M77.08,54.31s-1.94,5.32-2.91,8.76-8.64,9-9.26,9.34-6,.72-6,0,2.28-3.21,4.77-3.21,5.61-6.56,5.61-6.56L72.55,52Z"></path> <path class="cls-33" d="M156.91,83.65c-2.35-1-14.43-.22-16.14-1.75s-1.12-2.25-3.16-3-3.54-2.71-4-2.32c-.88.68,2.27,3.56,2,3.72s-4-2.83-4.26-1.73.58,4.93,3.05,5.48a29.06,29.06,0,0,1,5.86,1.79c1.51.69,16.11,4.84,17.58,4s10.75-11.79,10.75-11.79l-1-1.83Z"></path> <path class="cls-33" d="M132.21,78.78c.06-.27.33-.28.7-.14,1.1.6,3.61,4.59,2.12,5-.83.23-1.85-1.57-2.59-3.21A3.92,3.92,0,0,1,132.21,78.78Z"></path> <path class="cls-33" d="M93.41,54.31a38.75,38.75,0,0,0,.91,8.76c1,3.43,8.64,9,9.26,9.34s6,.72,6,0-2.28-3.21-4.77-3.21-5.6-6.56-5.6-6.56L97.94,52Z"></path> <polygon class="cls-34" points="124.48 88.63 135.29 84.58 134.28 82.57 124.48 85.09 124.48 88.63"></polygon> <rect class="cls-34" x="131.19" y="80.68" width="6.27" height="2.85" transform="translate(121.24 238.99) rotate(-116.66)"></rect> <rect class="cls-28" x="131.91" y="76.77" width="1.39" height="3.83" transform="translate(143.44 -75.13) rotate(63.34)"></rect> <rect class="cls-35" x="130.5" y="81.8" width="6.27" height="1.3" transform="translate(119.93 238.87) rotate(-116.66)"></rect> <rect class="cls-28" x="135.18" y="83.27" width="1.39" height="3.83" transform="translate(150.95 -74.48) rotate(63.31)"></rect> <rect class="cls-36" x="131.91" y="76.77" width="1.39" height="3.83" transform="translate(143.44 -75.13) rotate(63.34)"></rect> <rect class="cls-36" x="135.18" y="83.27" width="1.39" height="3.83" transform="translate(150.95 -74.48) rotate(63.31)"></rect> <path class="cls-37" d="M95.8,62.62s18.07,4.77,19.91,6c1.67,1.14,13.62,20,15,21.48,2.2,2.13,5.71-.73,8.6-.13s-5.69,5-8.26,6.92c-2,1.46-2.84-2.81-3.44-4-1.56-3-7.89-8.52-11.5-12.52a10.42,10.42,0,0,1-2.61-4.57L89.32,69.27Z"></path> <path class="cls-12" d="M108.4,66.13c.21.74,1.25,4.86,0,8.15a1.19,1.19,0,0,1-.09.15l-19-5.16,6.48-6.65,3.68,1C102,64.29,105.36,65.23,108.4,66.13Z"></path> <path class="cls-33" d="M80.52,62.82l11.58.27s18.32,7.33,20.21,9,2.81,20,6,27.54c1.48,3.47,4.92,2.75,7.2,4.77s-7.69,1.61-11,2c-2.79.33-.2-4.78-1.16-7.52C111.89,94.46,107,77.9,107,77.9s-11.24-1.78-20.2-2.2-9-7.9-9-7.9Z"></path> <path class="cls-24" d="M128.27,94.43a6.75,6.75,0,0,0,1.94,4l2.35-1.58,1-.69,7.53-5.07s.41-.39-.63-1.51c-.49-.52-2.07,0-3.65.57C136.82,90.2,129.49,95.86,128.27,94.43Z"></path> <path class="cls-38" d="M95.8,62.62l-1.61,3.11-9.59-.82S92.27,61.5,95.8,62.62Z"></path> <path class="cls-25" d="M113.33,102.7a7,7,0,0,0-.34,4.62l2.92-.21,1.27-.1,9.35-.7s.56-.14.21-1.68c-.17-.72-1.85-1.08-3.57-1.35C123.17,103.28,113.68,104.61,113.33,102.7Z"></path> <path class="cls-33" d="M73.69,42.82a4.55,4.55,0,0,1,3.69-3.4c1.19-.29,3.14-.33,4.41-1l0,0,.17-.14.12-.1c.54-.67.62-2.2.71-3.15a19.24,19.24,0,0,0-.17-2l3.06,1.34,2.67.13a.32.32,0,0,1,0,.08v0h0a.17.17,0,0,1,0,.07v0a0,0,0,0,0,0,0c0,.07,0,.16,0,.27,0,.34.12,2,.13,2.32a3,3,0,0,0,.07.32c0,.06,0,.12,0,.18a2,2,0,0,0,.21.49.75.75,0,0,0,.07.12,1.43,1.43,0,0,0,.33.36c1.21.76,3.15,1,4.31,1.39S96,41,96.22,43.38c.2,1.88.71,4.95.71,4.95l-13.39,10L73.18,47.16A37.42,37.42,0,0,1,73.69,42.82Z"></path> <path class="cls-39" d="M90.61,39.53h.55c1.08.33,2.24.56,3.06.84a4.4,4.4,0,0,1,3,4c.21,2,.67,4.77.67,4.77L82,55.81,71.19,54.68s1-7.3,1.09-8.06c.09-1,.24-2.3.46-3.42a4.94,4.94,0,0,1,4-3.68c1.29-.32,3.42-.36,4.79-1.06A1.26,1.26,0,0,0,82,38h0S90.26,43,90.61,39.53Z"></path> <polygon class="cls-39" points="97.25 44.39 99.22 53.85 91.07 55.28 91.45 52.51 97.25 44.39"></polygon> <polygon class="cls-40" points="95.29 54.4 94.56 46.39 96.44 54.16 95.29 54.4"></polygon> <path class="cls-12" d="M80.52,62.82l11.58.27s8.34,3.33,14.34,6l.62.43a19.52,19.52,0,0,1-2.72,8C100.49,77,93.06,76,86.75,75.7c-9-.43-9-7.9-9-7.9Z"></path> <path class="cls-39" d="M77.3,41.46S75.43,55.22,78,67.8c0,0,13.33-.2,17.8-5.18,0,0-1-16.29-1.65-21S91.61,49.88,89,47.74,77.3,41.46,77.3,41.46Z"></path> <polygon class="cls-40" points="77.74 67.8 76.6 55.28 77.46 48.63 81.64 67.8 77.74 67.8"></polygon> <path class="cls-33" d="M158.31,48.63c-.28.66-2.58,2.58-2.34,5.58.13,1.65.18,1.46.61,1.89.71.71.29,1.95,0,2.63-.38,1.06-1,1.81.26,2,1.36.19,1,.75.77,1.2s.47.65.67.75c0,0-.36.71.12.92s.88,0,1,.37.25,1.72,1,2,2.25-.65,3.06-1a3.42,3.42,0,0,1,2.7-.24c3.4,1.41,3.83,3.78,3.83,3.78s1.46,1,2.95-4.3c.21-.74,1.12-.93.67-2.09-.58-1.48-.73-10.64-4-9.71-.14,0-7.67-.21-7.67-.21Z"></path> <path class="cls-33" d="M173,64.16c.21-.74,1.74-.69,1.29-1.86-.27-.68-1.09-4-1.8-5.78-2.65-.45-3.56-.91-2.91.78,1.75,4.56-5.43,7.38-5.43,7.38h0a2.52,2.52,0,0,1,2.07,0c1.43.77,1.23,4.6,1.23,4.6S171.52,69.41,173,64.16Z"></path> <path class="cls-41" d="M172,46.42c-13.39-7.16-15.4,3.15-15.55,4.92.14-.86,7.47,3.84,8.61,4.52s-.54-2,1-2.4,3.54,2.29,3.51,3.84c0,1.2,2.82,2.22,2.82,2.22l1.42,1.17,1-4.59S175.46,48.26,172,46.42Z"></path> <path class="cls-37" d="M164.16,64.68s5.3-2.09,5.67-5.58h0s.43,3.26-2.71,6.95c-.41-.27-.34-1.13-.9-1.37a2.88,2.88,0,0,0-2.07,0Z"></path> <path class="cls-33" d="M138.52,95.4a20.75,20.75,0,0,0-3.31.79c-.8.38-8.05-.94-8.28-3.06s.4-1.18,2.31-.93,3.82.64,3.73-.36-1.68-.35-2.26-1.19c-.43-.61.78-.72,2.41-.85.65,0,1.88,0,2.22,0,2.55.14,2.92.94,3.95.71S138.52,95.4,138.52,95.4Z"></path> <path class="cls-42" d="M160.61,135.85a20.14,20.14,0,0,1,.59,7h-5.55a1.25,1.25,0,0,0-2-.91c-1.65.91-.9,1.57-5,1.57h-7s-1.6-3.64,1.88-4.3,7.69-1.91,7.94-3.89S160.61,135.85,160.61,135.85Z"></path> <path class="cls-16" d="M171,116.18l-15-4.49L161,135.85H150.32s-4.5-29.77-4.5-31.92,2.15-4.14,4.8-4.47,19.79,2.77,19.79,2.77l3.48,5.68Z"></path> <polygon class="cls-16" points="172 113.29 174.02 107.48 172 105.29 172 113.29"></polygon> <path class="cls-16" d="M164.54,68l-.52-.92s-2.58,17-4.89,16.53c-4.35-.89-18.3-2.7-18.3-2.7l-1.16,6,19.73,5.23,9.73-22.53Z"></path> <path class="cls-42" d="M195.85,127.26a17.58,17.58,0,0,1,5.84-3l2.12,5.2a1.26,1.26,0,0,0,0,2.18c1.43,1.23,1.72.3,3.3,4.18l2.68,6.57s-2.57,2.79-4.47-.23-4.76-7.15-6.59-6.68S195.85,127.26,195.85,127.26Z"></path> <path class="cls-1" d="M190.73,105.57l-19.52,2.05s-6.83,22-8,28,3,7.35,3,7.35h5.62L200,136.51l-4.47-9.59-19.85,4.27s13.75-15.89,14.72-18.88C191.72,108.19,190.73,105.57,190.73,105.57Z"></path> <path class="cls-43" d="M169.67,112.64c.91-3,1.54-5,1.54-5l19.52-2.05s1,2.62-.34,6.74a26,26,0,0,1-3.22,4.89c-11.37-2-17.5-4.56-17.5-4.56Z"></path> <path class="cls-1" d="M194.11,106s-8.71-31.3-11.05-35.25-8.39-9.19-8.39-9.19-9,3.27-10.85,5.69c-3.23,4.14,1.62,26.68,4.88,42.2C168.7,109.43,184.7,111,194.11,106Z"></path> <path class="cls-1" d="M172,76.11s-8.82,13.83-10.94,15.5-22.86,4.88-22.83,4.88l-.77-7.08S154.18,84,155,82.9c1.28-1.81,5.14-11.44,9.16-15.87Z"></path> <path class="cls-1" d="M172.49,142.8c-1.09.47-5.58,1.08-7-.17s8.08-4.5,8.08-4.5Z"></path> <path class="cls-16" d="M164.21,141.43c7-.58,31.54-7.74,33.83-9.11l2,4.19L171.82,143H166.2A4.74,4.74,0,0,1,164.21,141.43Z"></path> <path class="cls-1" d="M174.81,56.1s-6-3.33-18.68-3.86c0,0-.18-4.43,3.61-9.46A29,29,0,0,1,174.38,46,22.84,22.84,0,0,1,174.81,56.1Z"></path> <g class="cls-44"> <path class="cls-45" d="M172,46.42s.28,1,.68,2.94l-3.08-1A10.47,10.47,0,0,1,172,46.42Z"></path> <path class="cls-8" d="M171.79,47a21.47,21.47,0,0,1-.63,2.35s-.47-.31-.46-.5A10.27,10.27,0,0,1,171.79,47Z"></path> <polygon class="cls-8" points="170.9 48.76 174.04 49.26 171.79 50.44 169.18 49.56 168.62 47.4 170.9 48.76"></polygon> <polygon class="cls-45" points="171.79 50.44 170.9 48.76 169.18 49.56 171.79 50.44"></polygon> <path class="cls-45" d="M158.21,41.74s.74.67,2.09,2.09l-3.12.89A11.44,11.44,0,0,1,158.21,41.74Z"></path> <path class="cls-8" d="M158.31,42.37a20.9,20.9,0,0,1,.7,2.33s-.56,0-.65-.16A10.85,10.85,0,0,1,158.31,42.37Z"></path> <polygon class="cls-8" points="158.47 44.35 161.38 42.99 160.09 45.26 157.45 45.99 155.86 44.49 158.47 44.35"></polygon> <polygon class="cls-45" points="160.09 45.26 158.47 44.35 157.45 45.99 160.09 45.26"></polygon> <path class="cls-45" d="M170.84,42.38s.58.52,1.63,1.63L170,44.7A8.48,8.48,0,0,1,170.84,42.38Z"></path> <path class="cls-8" d="M170.92,42.88a15.2,15.2,0,0,1,.54,1.81s-.43,0-.5-.12A8.23,8.23,0,0,1,170.92,42.88Z"></path> <polygon class="cls-8" points="171.05 44.42 173.31 43.36 172.31 45.12 170.24 45.7 169 44.53 171.05 44.42"></polygon> <polygon class="cls-45" points="172.31 45.12 171.05 44.42 170.24 45.7 172.31 45.12"></polygon> <path class="cls-45" d="M175.78,50.43s.07.79.09,2.35l-2.21-1.26A7.57,7.57,0,0,1,175.78,50.43Z"></path> <path class="cls-8" d="M175.51,50.84a16.24,16.24,0,0,1-.82,1.7s-.31-.31-.28-.45A7.59,7.59,0,0,1,175.51,50.84Z"></path> <polygon class="cls-8" points="174.58 52.04 176.91 52.92 175.01 53.47 173.15 52.38 173.03 50.64 174.58 52.04"></polygon> <polygon class="cls-45" points="175.01 53.47 174.58 52.04 173.15 52.38 175.01 53.47"></polygon> <path class="cls-45" d="M169.11,50.17s.07.79.09,2.36L167,51.26A8.32,8.32,0,0,1,169.11,50.17Z"></path> <path class="cls-8" d="M168.84,50.58a14.38,14.38,0,0,1-.82,1.7s-.31-.31-.28-.45A7.59,7.59,0,0,1,168.84,50.58Z"></path> <polygon class="cls-8" points="167.91 51.78 170.24 52.67 168.34 53.21 166.48 52.12 166.37 50.38 167.91 51.78"></polygon> <polygon class="cls-45" points="168.34 53.21 167.91 51.78 166.48 52.12 168.34 53.21"></polygon> <path class="cls-45" d="M175.76,45.18s.36.7,1,2.14L174.2,47A8.22,8.22,0,0,1,175.76,45.18Z"></path> <path class="cls-8" d="M175.66,45.67a15.47,15.47,0,0,1-.13,1.89s-.41-.16-.43-.3A8,8,0,0,1,175.66,45.67Z"></path> <polygon class="cls-8" points="175.24 47.15 177.72 47.03 176.16 48.29 174.04 48.03 173.3 46.47 175.24 47.15"></polygon> <polygon class="cls-45" points="176.16 48.29 175.24 47.15 174.04 48.03 176.16 48.29"></polygon> <path class="cls-45" d="M158.6,47.11s.36.82.93,2.49l-2.82-.5A9.65,9.65,0,0,1,158.6,47.11Z"></path> <path class="cls-8" d="M158.46,47.66a17.74,17.74,0,0,1-.28,2.13s-.44-.21-.46-.37A9.13,9.13,0,0,1,158.46,47.66Z"></path> <polygon class="cls-8" points="157.88 49.3 160.7 49.34 158.86 50.66 156.47 50.23 155.73 48.4 157.88 49.3"></polygon> <polygon class="cls-45" points="158.86 50.66 157.88 49.3 156.47 50.23 158.86 50.66"></polygon> <path class="cls-45" d="M165.4,47.1s.41.57,1.13,1.74l-2.25.14A7.52,7.52,0,0,1,165.4,47.1Z"></path> <path class="cls-8" d="M165.38,47.55a14.72,14.72,0,0,1,.15,1.69s-.38-.08-.42-.2A7.14,7.14,0,0,1,165.38,47.55Z"></path> <polygon class="cls-8" points="165.21 48.92 167.39 48.43 166.19 49.79 164.28 49.89 163.41 48.62 165.21 48.92"></polygon> <polygon class="cls-45" points="166.19 49.79 165.21 48.92 164.28 49.89 166.19 49.79"></polygon> <path class="cls-45" d="M167,42.71s.13.9.25,2.66l-2.58-1.28A9.17,9.17,0,0,1,167,42.71Z"></path> <path class="cls-8" d="M166.73,43.2a16.12,16.12,0,0,1-.82,2s-.37-.33-.35-.49A9.19,9.19,0,0,1,166.73,43.2Z"></path> <polygon class="cls-8" points="165.75 44.62 168.45 45.45 166.34 46.2 164.15 45.1 163.92 43.14 165.75 44.62"></polygon> <polygon class="cls-45" points="166.34 46.2 165.75 44.62 164.15 45.1 166.34 46.2"></polygon> <path class="cls-45" d="M161.49,45.23s.41.46,1.15,1.43l-2,.32A6.71,6.71,0,0,1,161.49,45.23Z"></path> <path class="cls-8" d="M161.51,45.62a12,12,0,0,1,.28,1.48s-.34,0-.39-.14A6.34,6.34,0,0,1,161.51,45.62Z"></path> <polygon class="cls-8" points="161.48 46.84 163.35 46.22 162.41 47.52 160.75 47.78 159.87 46.74 161.48 46.84"></polygon> <polygon class="cls-45" points="162.41 47.52 161.48 46.84 160.75 47.78 162.41 47.52"></polygon> </g> <path class="cls-16" d="M156.48,49.59c13.82,1,18,4.18,18.62,4.78a16.87,16.87,0,0,1-.29,1.73s-6-3.33-18.68-3.86A11.39,11.39,0,0,1,156.48,49.59Z"></path> <path class="cls-34" d="M118.64,72.39c2.51,3.57,5.61,8.29,8.24,12.21l-3.19,3.5c-2.18-2.19-5.8-5.73-7.55-7.67a12.22,12.22,0,0,1-2.2-3.34.48.48,0,0,1,0-.12C114.37,76,118.2,72.39,118.64,72.39Z"></path> <path class="cls-35" d="M120.63,75.27h0c-2.52,3.55-3.19,5.45-3.3,6.44l-.65-.69C117.6,78.52,120.63,75.27,120.63,75.27Z"></path> <polygon class="cls-35" points="121.2 85.59 125.87 83.08 120.2 84.6 121.2 85.59"></polygon> <polygon class="cls-35" points="123.03 78.88 122.4 77.89 119.27 81.71 123.03 78.88"></polygon> <path class="cls-37" d="M82.82,35c0-.53-.06-1-.1-1.41a4.38,4.38,0,0,1,.47-.35l2.52,1.11.58,0,2.09,1.25c0,.63.08,1.47.09,1.68a3,3,0,0,0,.07.32c0,.06,0,.12,0,.18a2,2,0,0,0,.21.49s-4,.42-6.16-1.63C82.74,36.12,82.78,35.5,82.82,35Z"></path> <path class="cls-46" d="M92.07,25.12C91,22,88.9,19,84.47,19.76c-4.66.78-5.86,5.72-5.54,8.31a13.63,13.63,0,0,0,1.29,4.63c.26.5,2.53,3.12,2.56,2.8a13.42,13.42,0,0,1,.41-2.23C84.84,30.06,92.07,25.12,92.07,25.12Z"></path> <path class="cls-46" d="M93,29s1.39-2.1.88-4a7.44,7.44,0,0,0-7-5.31C82.9,19.66,93,29,93,29Z"></path> <path class="cls-33" d="M81.89,32.61a5.92,5.92,0,0,0,2.36,3.15c1.63,1,4.2,2.36,5,2.27s1.38.08,2.34-2S93.27,33,93.14,31s.2-6.13-2.43-7.36a5.63,5.63,0,0,0-6.26,1.7c-1.41,1.79-1.38,2.39-1.66,5,0,0-1.51-1.62-2-1.64s-1,.37-.53,1.43.66.84.76,1.4.21,1.09.51,1.26S81.89,32.61,81.89,32.61Z"></path> <polygon class="cls-46" points="88.8 22.21 93.02 27.72 93.15 24.46 88.8 22.21"></polygon> <path class="cls-46" d="M90.1,22.88s.09,1.54-2.79,4c0,0,0-.93,0-1.35a16.53,16.53,0,0,1-4.52,4.78S81.65,25.37,81.7,25s4.61-4.49,4.9-4.63S90.1,22.88,90.1,22.88Z"></path> <path class="cls-46" d="M89.49,22.31a7.05,7.05,0,0,0,2,4.19,2.33,2.33,0,0,0,0-2.36A4.45,4.45,0,0,0,89.49,22.31Z"></path> <path class="cls-33" d="M132.18,78.11c-1.2-.43-2.3.3-1.76,2.34s2.4,3.42,2.66,2.33S132.87,78.36,132.18,78.11Z"></path> <path class="cls-47" d="M161.06,91.61c-2.15,1.7-22.86,4.88-22.83,4.88L138,94h0c3.18-.48,18-3,19.86-4.11s11.46-14.57,11.46-14.57A48.33,48.33,0,0,1,168,82.18C165.4,86.12,162.22,90.7,161.06,91.61Z"></path> <path class="cls-4" d="M60.5,139.44a6.08,6.08,0,1,1-6.08-6.07A6.08,6.08,0,0,1,60.5,139.44Z"></path> <path class="cls-5" d="M54.42,133.37H54.3a5.83,5.83,0,1,1-5.94,5.94s0,.08,0,.12a6.08,6.08,0,1,0,6.07-6.07Z"></path> <path class="cls-48" d="M49.85,139.71a4.76,4.76,0,0,1,9.52-.24c0-.08,0-.16,0-.24a5.26,5.26,0,1,0-5.25,5.25l.23,0A4.77,4.77,0,0,1,49.85,139.71Z"></path> <path class="cls-5" d="M57.24,139.67a2.6,2.6,0,1,1-2.59-2.6A2.59,2.59,0,0,1,57.24,139.67Z"></path> <path class="cls-26" d="M56.8,139.44a2.38,2.38,0,1,1-2.38-2.37A2.39,2.39,0,0,1,56.8,139.44Z"></path> <path class="cls-4" d="M54.92,139.44a.5.5,0,1,1-.5-.49A.5.5,0,0,1,54.92,139.44Z"></path> <path class="cls-29" d="M53.34,132.93l-3,1.69c-.51.33-.68.75-.31,1.11L54,139a.68.68,0,0,0,.95,0l4-3.24c.37-.36.19-.81-.31-1.11l-3-1.69A2.55,2.55,0,0,0,53.34,132.93Z"></path> <path class="cls-4" d="M139.22,139.44a6.08,6.08,0,1,1-6.07-6.07A6.08,6.08,0,0,1,139.22,139.44Z"></path> <path class="cls-5" d="M133.15,133.37H133a5.83,5.83,0,1,1-5.94,5.94s0,.08,0,.12a6.08,6.08,0,1,0,6.08-6.07Z"></path> <path class="cls-48" d="M128.57,139.71a4.76,4.76,0,0,1,9.52-.24,2,2,0,0,0,0-.24,5.25,5.25,0,1,0-5.25,5.25l.24,0A4.77,4.77,0,0,1,128.57,139.71Z"></path> <path class="cls-5" d="M136,139.67a2.6,2.6,0,1,1-2.59-2.6A2.59,2.59,0,0,1,136,139.67Z"></path> <path class="cls-26" d="M135.52,139.44a2.38,2.38,0,1,1-2.37-2.37A2.38,2.38,0,0,1,135.52,139.44Z"></path> <path class="cls-4" d="M133.64,139.44a.5.5,0,1,1-.49-.49A.49.49,0,0,1,133.64,139.44Z"></path> <path class="cls-29" d="M132.07,132.93l-3,1.69c-.5.33-.67.75-.31,1.11l4,3.24a.66.66,0,0,0,.94,0l4-3.24c.37-.36.2-.81-.31-1.11l-3-1.69A2.55,2.55,0,0,0,132.07,132.93Z"></path> </g> </g> </g> </svg> 